<?xml version="1.0" encoding="utf-8"?>
<!-- Generator: Adobe Illustrator 23.0.1, SVG Export Plug-In . SVG Version: 6.00 Build 0)  -->
<svg version="1.1" id="Layer_1" xmlns="http://www.w3.org/2000/svg" xmlns:xlink="http://www.w3.org/1999/xlink" x="0px" y="0px"
	 viewBox="0 0 135 126.5" style="enable-background:new 0 0 135 126.5;" xml:space="preserve">
<g>
	<path d="M63,0H0v72h135V0H63z M63,70H2V2h27v68h2V2h15v68h2V2h15V70z M17.5,126.5c-10.3,0-16.3-4.9-16.7-14.1
		c0-0.2,0.2-0.4,0.4-0.4h4.7c0.2,0,0.4,0.2,0.5,0.4c0.5,6.1,3.4,9.8,11.2,9.8c6,0,10.1-2.2,10.1-7.4c0-11.1-26.1-3-26.1-18.3
		C1.6,89.1,7.4,85,16.3,85c9.2,0,14.9,3.9,15.7,12.2c0.1,0.2-0.1,0.4-0.3,0.4h-4.8c-0.2,0-0.4-0.2-0.4-0.4
		c-0.5-5.2-3.8-7.8-10.3-7.8c-5.7,0-9.4,2.1-9.4,6.6c0,10.3,26.1,2.5,26.1,18.1C32.9,122.3,26.6,126.5,17.5,126.5z M50.5,125
		c0,0.2-0.2,0.5-0.4,0.5c-1.2,0.3-2.7,0.7-4.1,0.7c-4.3,0-8-2.2-8-8.7l0.1-17.3h-3.4c-0.2,0-0.4-0.2-0.4-0.4v-3.3
		c0-0.2,0.2-0.4,0.4-0.4h3.4l-0.1-7c0-0.2,0.2-0.4,0.4-0.4h4.5c0.2,0,0.4,0.2,0.4,0.4l-0.1,7h6.9c0.2,0,0.4,0.2,0.4,0.4v3.3
		c0,0.2-0.2,0.4-0.4,0.4h-6.9l0.1,17.2c0,3.6,1.2,4.6,3.7,4.6c1.2,0,2.3-0.2,3.2-0.4c0.2-0.1,0.4,0.1,0.4,0.3v3.1L50.5,125z"/>
	<path d="M72.5,125.8c-0.2,0-0.4-0.2-0.4-0.4l0.1-4.4c-2,3.3-5.2,5.3-9.5,5.3c-8,0-12.2-6.7-12.2-15.2S55,95.7,62.8,95.7
		c4.2,0,7.3,1.8,9.3,5l-0.1-4c0-0.2,0.2-0.4,0.4-0.4h4.5c0.2,0,0.4,0.2,0.4,0.4l-0.2,14.1l0.2,14.6c0,0.2-0.2,0.4-0.4,0.4
		C76.9,125.8,72.5,125.8,72.5,125.8z M64.1,122.5c5.1,0,8.2-3.8,8.3-11.2c0.1-7.2-2.7-11.4-7.6-11.7h-1c-5.4,0.2-7.9,4.7-7.9,11.2
		C55.9,117.7,58.5,122.5,64.1,122.5z M93.7,126.5c-8.8,0-13.8-6.1-13.8-15.4s5-15.5,13.9-15.5c7.3,0,11.9,4.2,12.4,10.5
		c0.1,0.2-0.1,0.4-0.3,0.4h-4.1c-0.2,0-0.4-0.2-0.5-0.4c-0.7-4.3-3.5-6.6-7.6-6.6c-5.8,0-8.6,4.2-8.6,11.6c0,7.5,2.8,11.5,8.6,11.6
		c4.6,0,7.4-2.8,7.8-7.6c0.1-0.2,0.2-0.4,0.5-0.4h4.1c0.2,0,0.4,0.2,0.4,0.4C106.1,121.6,101.4,126.5,93.7,126.5z M121.9,126.5
		c-8.8,0-13.8-6.1-13.8-15.4s5-15.5,13.9-15.5c7.3,0,11.9,4.2,12.4,10.5c0.1,0.2-0.1,0.4-0.3,0.4H130c-0.2,0-0.4-0.2-0.5-0.4
		c-0.7-4.3-3.5-6.6-7.6-6.6c-5.8,0-8.6,4.2-8.6,11.6c0,7.5,2.8,11.5,8.6,11.6c4.6,0,7.4-2.8,7.8-7.6c0.1-0.2,0.2-0.4,0.5-0.4h4.1
		c0.2,0,0.4,0.2,0.4,0.4C134.3,121.6,129.6,126.5,121.9,126.5z"/>
</g>
</svg>
